<svg width="22" height="22" viewBox="0 0 22 22" fill="none" xmlns="http://www.w3.org/2000/svg">
<g id="Group">
<path id="Vector" d="M7.13755 0.275024H2.37505C1.10005 0.275024 0.0500488 1.32502 0.0500488 2.60002V7.36252C0.0500488 8.63752 1.10005 9.68752 2.37505 9.68752H7.13755C8.41255 9.68752 9.46255 8.63752 9.46255 7.36252V2.63752C9.50005 1.32502 8.45005 0.275024 7.13755 0.275024ZM7.81255 7.40002C7.81255 7.77502 7.51255 8.07502 7.13755 8.07502H2.37505C2.00005 8.07502 1.70005 7.77502 1.70005 7.40002V2.63752C1.70005 2.26252 2.00005 1.96252 2.37505 1.96252H7.13755C7.51255 1.96252 7.81255 2.26252 7.81255 2.63752V7.40002Z" fill="#111928"/>
<path id="Vector_2" d="M19.6251 0.275024H14.8626C13.5876 0.275024 12.5376 1.32502 12.5376 2.60002V7.36252C12.5376 8.63752 13.5876 9.68752 14.8626 9.68752H19.6251C20.9001 9.68752 21.9501 8.63752 21.9501 7.36252V2.63752C21.9501 1.32502 20.9001 0.275024 19.6251 0.275024ZM20.3001 7.40002C20.3001 7.77502 20.0001 8.07502 19.6251 8.07502H14.8626C14.4876 8.07502 14.1876 7.77502 14.1876 7.40002V2.63752C14.1876 2.26252 14.4876 1.96252 14.8626 1.96252H19.6251C20.0001 1.96252 20.3001 2.26252 20.3001 2.63752V7.40002Z" fill="#111928"/>
<path id="Vector_3" d="M7.13755 12.2375H2.37505C1.10005 12.2375 0.0500488 13.2875 0.0500488 14.5625V19.325C0.0500488 20.6 1.10005 21.65 2.37505 21.65H7.13755C8.41255 21.65 9.46255 20.6 9.46255 19.325V14.6C9.50005 13.2875 8.45005 12.2375 7.13755 12.2375ZM7.81255 19.3625C7.81255 19.7375 7.51255 20.0375 7.13755 20.0375H2.37505C2.00005 20.0375 1.70005 19.7375 1.70005 19.3625V14.6C1.70005 14.225 2.00005 13.925 2.37505 13.925H7.13755C7.51255 13.925 7.81255 14.225 7.81255 14.6V19.3625Z" fill="#111928"/>
<path id="Vector_4" d="M19.6251 12.2375H14.8626C13.5876 12.2375 12.5376 13.2875 12.5376 14.5625V19.325C12.5376 20.6 13.5876 21.65 14.8626 21.65H19.6251C20.9001 21.65 21.9501 20.6 21.9501 19.325V14.6C21.9501 13.2875 20.9001 12.2375 19.6251 12.2375ZM20.3001 19.3625C20.3001 19.7375 20.0001 20.0375 19.6251 20.0375H14.8626C14.4876 20.0375 14.1876 19.7375 14.1876 19.3625V14.6C14.1876 14.225 14.4876 13.925 14.8626 13.925H19.6251C20.0001 13.925 20.3001 14.225 20.3001 14.6V19.3625Z" fill="#111928"/>
</g>
</svg>
