<svg width="24" height="22" viewBox="0 0 24 22" fill="none" xmlns="http://www.w3.org/2000/svg">
<g id="Group">
<path id="Vector" d="M22.5 8.86251C22.05 8.86251 21.6375 9.23751 21.6375 9.72501V16.775C21.6375 18.2375 20.55 19.4 19.2 19.4H4.79995C3.41245 19.4 2.36245 18.2375 2.36245 16.775V9.68751C2.36245 9.23751 1.98745 8.82501 1.49995 8.82501C1.01245 8.82501 0.637451 9.20001 0.637451 9.68751V16.7375C0.637451 19.1 2.47495 21.05 4.76245 21.05H19.2C21.4875 21.05 23.325 19.1375 23.325 16.7375V9.68751C23.3625 9.23751 22.95 8.86251 22.5 8.86251Z" fill="black"/>
<path id="Vector_2" d="M11.3999 14.45C11.5499 14.6 11.7749 14.7125 11.9999 14.7125C12.2249 14.7125 12.4124 14.6375 12.5999 14.45L17.1749 9.91251C17.5124 9.57501 17.5124 9.05001 17.1749 8.71251C16.8374 8.37501 16.3124 8.37501 15.9749 8.71251L12.8624 11.7875V1.81251C12.8624 1.36251 12.4874 0.950012 11.9999 0.950012C11.5499 0.950012 11.1374 1.32501 11.1374 1.81251V11.8625L8.0249 8.75001C7.6874 8.41251 7.1624 8.41251 6.8249 8.75001C6.4874 9.08751 6.4874 9.61251 6.8249 9.95001L11.3999 14.45Z" fill="black"/>
</g>
</svg>
